<svg width="50" height="56" viewBox="0 0 50 56" fill="none" xmlns="http://www.w3.org/2000/svg">
<path fill-rule="evenodd" clip-rule="evenodd" d="M35.0005 15.5C35.0005 21.0228 30.5233 25.5 25.0005 25.5C19.4776 25.5 15.0005 21.0228 15.0005 15.5C15.0005 9.97715 19.4776 5.5 25.0005 5.5C30.5233 5.5 35.0005 9.97715 35.0005 15.5ZM40.0005 15.5C40.0005 23.7843 33.2847 30.5 25.0005 30.5C16.7162 30.5 10.0005 23.7843 10.0005 15.5C10.0005 7.21573 16.7162 0.5 25.0005 0.5C33.2847 0.5 40.0005 7.21573 40.0005 15.5ZM48.3283 45.7518C37.3645 28.6274 11.9988 28.5207 1.3552 45.9762C-1.18971 50.1498 1.81434 55.5 6.70268 55.5H43.0539C48.1022 55.5 50.9763 49.8876 48.3283 45.7518ZM5.62418 48.5792C14.2863 34.3733 35.0861 34.3417 44.1174 48.4478C44.709 49.3717 44.0134 50.5 43.0539 50.5H6.70268C5.71678 50.5 5.11091 49.4209 5.62418 48.5792Z" fill="white"/>
</svg>
